<svg width="180" height="180" viewBox="0 0 180 180" fill="none" xmlns="http://www.w3.org/2000/svg">
  <rect width="180" height="180" rx="20" fill="#2563eb"/>
  <g transform="translate(30, 30)">
    <!-- Water waves -->
    <path d="M15 75 Q30 67 45 75 T75 75 Q90 67 105 75 T135 75" stroke="#60a5fa" stroke-width="3" fill="none"/>
    <path d="M15 83 Q30 75 45 83 T75 83 Q90 75 105 83 T135 83" stroke="#93c5fd" stroke-width="2" fill="none"/>
    <path d="M15 91 Q30 83 45 91 T75 91 Q90 83 105 91 T135 91" stroke="#bfdbfe" stroke-width="2" fill="none"/>
    
    <!-- Kayak -->
    <ellipse cx="75" cy="60" rx="37" ry="7" fill="#dc2626" transform="rotate(-15 75 60)"/>
    <ellipse cx="75" cy="60" rx="32" ry="5" fill="#ef4444" transform="rotate(-15 75 60)"/>
    
    <!-- Paddle -->
    <rect x="95" y="45" width="22" height="3" rx="1.5" fill="#92400e" transform="rotate(-30 106 46.5)"/>
    <ellipse cx="112" cy="41" rx="5" ry="11" fill="#92400e" transform="rotate(-30 112 41)"/>
    
    <!-- Palm trees -->
    <rect x="22" y="30" width="3" height="30" fill="#92400e"/>
    <path d="M23.5 30 Q18 26 15 30 Q18 22 23.5 26 Q29 22 32 30 Q29 26 23.5 30" fill="#16a34a"/>
    
    <rect x="112" y="22" width="3" height="38" fill="#92400e"/>
    <path d="M113.5 22 Q108 18 105 22 Q108 14 113.5 18 Q119 14 122 22 Q119 18 113.5 22" fill="#16a34a"/>
    
    <!-- Mountains in background -->
    <path d="M0 45 L18 22 L36 45 Z" fill="#059669" opacity="0.6"/>
    <path d="M112 45 L130 18 L148 45 Z" fill="#059669" opacity="0.6"/>
    
    <!-- Sun -->
    <circle cx="105" cy="25" r="8" fill="#fbbf24" opacity="0.8"/>
  </g>
  
  <!-- App name -->
  <text x="90" y="160" text-anchor="middle" fill="white" font-family="serif" font-size="12" font-weight="bold">Heaven of Munroe</text>
</svg>